<svg viewBox="60 -765 520 770" xmlns="http://www.w3.org/2000/svg" id="glyph302"><path fill="#FF0000" d="M240-296c42,0,111,-35,167,-35c26,0,41,0,54,1c13,-6,18,-13,22,-21c-3,-4,-9,-7,-37,-7c-37,0,-56,7,-80,10c1,-23,18,-30,18,-50c0,-17,-9,-33,-20,-37c-17,6,-32,21,-35,28c6,9,15,10,15,20c0,13,-21,56,-29,56c-3,0,-5,-1,-7,-5c4,-18,11,-33,11,-52c0,-5,-3,-10,-7,-10c-10,0,-16,16,-25,29c-6,10,-12,11,-12,19c4,6,13,3,13,9c0,19,-9,22,-34,22c-26,0,-44,-10,-65,-10c-12,0,-22,8,-27,11c14,17,57,22,78,22ZM403-75c17,0,38,-13,49,-13c26,0,46,-12,46,-35c0,-45,-84,-59,-110,-61c-1,-9,-2,-25,-2,-34c0,-47,14,-70,14,-80c0,-10,-8,-14,-21,-14c-24,0,-67,19,-137,30c-4,17,-4,41,-4,55c0,28,8,54,15,58c7,-7,9,-14,13,-20c5,-2,11,-5,16,-5l-1,29c-12,4,-22,8,-38,8c-17,-30,-9,-61,-37,-66c-3,3,-4,4,-4,6c0,11,7,38,11,61h-4c-18,0,-32,-4,-50,-4c0,3,-1,5,-1,7c0,15,28,23,51,23h12c4,10,14,49,25,49c10,0,9,-18,10,-27c10,3,19,8,32,8c6,0,10,-8,19,-11c16,10,77,36,96,36ZM304-256c0,-7,2,-11,3,-21c14,-2,22,-7,40,-10c0,8,-1,14,-1,23c-13,2,-23,5,-42,8ZM266-249l-4-1v-18l24-4c-1,6,-2,13,-2,20c-6,1,-12,3,-18,3ZM304-217v-22c17,-3,31,-7,41,-10c-1,8,-1,17,-1,23c-13,4,-26,8,-40,9ZM263-210c0,-5,-1,-9,-1,-14c0,-11,-4,-7,20,-11v23c-7,1,-14,2,-19,2ZM306-172v-27c18,-5,29,-7,38,-10c1,9,1,15,1,26c-13,5,-24,8,-39,11ZM367-101c-12,0,-39,-11,-45,-19c12,-5,15,-11,26,-14c2,3,4,10,6,13c11,0,28,-7,37,-13c1,-2,3,-7,3,-11c0,-8,-3,-17,-3,-21c19,1,59,12,59,24c0,25,-32,17,-49,24c-14,6,-20,17,-34,17ZM312-138c-3,0,-5,-8,-5,-16c13,-4,26,-9,39,-11c-1,5,0,11,1,16c-18,5,-26,11,-35,11ZM254-120l-7-16l34-11c0,5,1,11,5,16c-9,4,-18,8,-32,11Z"></path><path fill="#333333" d="M500-492c8,0,11,-2,19,-4c-3,-15,-100,-40,-141,-70c-37,-26,-59,-84,-89,-84c-17,0,-31,14,-37,24c4,7,17,10,25,19c21,21,32,44,68,77c17,15,97,38,155,38ZM126-441c21,0,87,-20,127,-40c13,-6,32,-10,32,-24c0,-18,-21,-38,-44,-38c-3,0,-6,1,-9,2c-21,72,-85,75,-111,99c2,1,3,1,5,1Z"></path><path fill="#F9F9F5" d="M90,5h460c17,0,30,-13,30,-30v-710c0,-17,-13,-30,-30,-30h-460c-17,0,-30,13,-30,30v710c0,17,13,30,30,30ZM500-492c-58,0,-138,-23,-155,-38c-36,-33,-47,-56,-68,-77c-8,-9,-21,-12,-25,-19c6,-10,20,-24,37,-24c30,0,52,58,89,84c41,30,138,55,141,70c-8,2,-11,4,-19,4ZM126-441c-2,0,-3,0,-5,-1c26,-24,90,-27,111,-99c3,-1,6,-2,9,-2c23,0,44,20,44,38c0,14,-19,18,-32,24c-40,20,-106,40,-127,40ZM240-296c-21,0,-64,-5,-78,-22c5,-3,15,-11,27,-11c21,0,39,10,65,10c25,0,34,-3,34,-22c0,-6,-9,-3,-13,-9c0,-8,6,-9,12,-19c9,-13,15,-29,25,-29c4,0,7,5,7,10c0,19,-7,34,-11,52c2,4,4,5,7,5c8,0,29,-43,29,-56c0,-10,-9,-11,-15,-20c3,-7,18,-22,35,-28c11,4,20,20,20,37c0,20,-17,27,-18,50c24,-3,43,-10,80,-10c28,0,34,3,37,7c-4,8,-9,15,-22,21c-13,-1,-28,-1,-54,-1c-56,0,-125,35,-167,35ZM403-75c-19,0,-80,-26,-96,-36c-9,3,-13,11,-19,11c-13,0,-22,-5,-32,-8c-1,9,0,27,-10,27c-11,0,-21,-39,-25,-49h-12c-23,0,-51,-8,-51,-23c0,-2,1,-4,1,-7c18,0,32,4,50,4h4c-4,-23,-11,-50,-11,-61c0,-2,1,-3,4,-6c28,5,20,36,37,66c16,0,26,-4,38,-8l1-29c-5,0,-11,3,-16,5c-4,6,-6,13,-13,20c-7,-4,-15,-30,-15,-58c0,-14,0,-38,4,-55c70,-11,113,-30,137,-30c13,0,21,4,21,14c0,10,-14,33,-14,80c0,9,1,25,2,34c26,2,110,16,110,61c0,23,-20,35,-46,35c-11,0,-32,13,-49,13ZM304-256c19,-3,29,-6,42,-8c0,-9,1,-15,1,-23c-18,3,-26,8,-40,10c-1,10,-3,14,-3,21ZM266-249c6,0,12,-2,18,-3c0,-7,1,-14,2,-20l-24,4v18ZM304-217c14,-1,27,-5,40,-9c0,-6,0,-15,1,-23c-10,3,-24,7,-41,10ZM263-210c5,0,12,-1,19,-2v-23c-24,4,-20,0,-20,11c0,5,1,9,1,14ZM306-172c15,-3,26,-6,39,-11c0,-11,0,-17,-1,-26c-9,3,-20,5,-38,10ZM367-101c14,0,20,-11,34,-17c17,-7,49,1,49,-24c0,-12,-40,-23,-59,-24c0,4,3,13,3,21c0,4,-2,9,-3,11c-9,6,-26,13,-37,13c-2,-3,-4,-10,-6,-13c-11,3,-14,9,-26,14c6,8,33,19,45,19ZM312-138c9,0,17,-6,35,-11c-1,-5,-2,-11,-1,-16c-13,2,-26,7,-39,11c0,8,2,16,5,16ZM254-120c14,-3,23,-7,32,-11c-4,-5,-5,-11,-5,-16l-34,11Z"></path></svg>