<svg viewBox="60 -765 520 770" xmlns="http://www.w3.org/2000/svg" id="glyph314"><path fill="#00007F" d="M320-409c72,0,131,-59,131,-131c0,-72,-59,-131,-131,-131c-72,0,-131,59,-131,131c0,72,59,131,131,131ZM320-432c-60,0,-108,-48,-108,-108c0,-60,48,-108,108,-108c60,0,108,48,108,108c0,60,-48,108,-108,108ZM320-444c53,0,96,-43,96,-96c0,-53,-43,-96,-96,-96c-53,0,-96,43,-96,96c0,53,43,96,96,96ZM291-561l-34-19l-1-23c11,-12,25,-20,41,-24l19,13v38l-11,3l-16-28l-6,4l16,28c-3,2,-6,5,-8,8ZM349-561c-2,-3,-5,-6,-8,-8l16-28l-6-4l-16,28l-11-3v-38l19-13c16,4,30,12,41,24l-1,23ZM254-506l-21-10c-2,-8,-3,-16,-3,-24c0,-8,1,-16,3,-24l21-10l33,19l-3,11h-32v8h32l3,11ZM386-506l-33-19l3-11h32v-8h-32l-3-11l33-19l21,10c2,8,3,16,3,24c0,8,-1,16,-3,24ZM320-510c-17,0,-30,-13,-30,-30c0,-17,13,-30,30,-30c17,0,30,13,30,30c0,17,-13,30,-30,30ZM320-526c8,0,14,-6,14,-14c0,-8,-6,-14,-14,-14c-8,0,-14,6,-14,14c0,8,6,14,14,14ZM297-453c-16,-4,-30,-12,-41,-24l1-23l34-19c2,3,5,6,8,8l-16,28l6,4l16-28l11,3v38ZM343-453l-19-13v-38l11-3l16,28l6-4l-16-28c3,-2,6,-5,8,-8l34,19l1,23c-11,12,-25,20,-41,24ZM320-89c72,0,131,-59,131,-131c0,-72,-59,-131,-131,-131c-72,0,-131,59,-131,131c0,72,59,131,131,131ZM320-112c-60,0,-108,-48,-108,-108c0,-60,48,-108,108,-108c60,0,108,48,108,108c0,60,-48,108,-108,108ZM320-124c53,0,96,-43,96,-96c0,-53,-43,-96,-96,-96c-53,0,-96,43,-96,96c0,53,43,96,96,96ZM291-241l-34-19l-1-23c11,-12,25,-20,41,-24l19,13v38l-11,3l-16-28l-6,4l16,28c-3,2,-6,5,-8,8ZM349-241c-2,-3,-5,-6,-8,-8l16-28l-6-4l-16,28l-11-3v-38l19-13c16,4,30,12,41,24l-1,23ZM254-186l-21-10c-2,-8,-3,-16,-3,-24c0,-8,1,-16,3,-24l21-10l33,19l-3,11h-32v8h32l3,11ZM386-186l-33-19l3-11h32v-8h-32l-3-11l33-19l21,10c2,8,3,16,3,24c0,8,-1,16,-3,24ZM320-190c-17,0,-30,-13,-30,-30c0,-17,13,-30,30,-30c17,0,30,13,30,30c0,17,-13,30,-30,30ZM320-206c8,0,14,-6,14,-14c0,-8,-6,-14,-14,-14c-8,0,-14,6,-14,14c0,8,6,14,14,14ZM297-133c-16,-4,-30,-12,-41,-24l1-23l34-19c2,3,5,6,8,8l-16,28l6,4l16-28l11,3v38ZM343-133l-19-13v-38l11-3l16,28l6-4l-16-28c3,-2,6,-5,8,-8l34,19l1,23c-11,12,-25,20,-41,24Z"></path><path fill="#F9F9F5" d="M90,5h460c17,0,30,-13,30,-30v-710c0,-17,-13,-30,-30,-30h-460c-17,0,-30,13,-30,30v710c0,17,13,30,30,30ZM320-409c-72,0,-131,-59,-131,-131c0,-72,59,-131,131,-131c72,0,131,59,131,131c0,72,-59,131,-131,131ZM320-432c60,0,108,-48,108,-108c0,-60,-48,-108,-108,-108c-60,0,-108,48,-108,108c0,60,48,108,108,108ZM320-444c-53,0,-96,-43,-96,-96c0,-53,43,-96,96,-96c53,0,96,43,96,96c0,53,-43,96,-96,96ZM291-561c2,-3,5,-6,8,-8l-16-28l6-4l16,28l11-3v-38l-19-13c-16,4,-30,12,-41,24l1,23ZM349-561l34-19l1-23c-11,-12,-25,-20,-41,-24l-19,13v38l11,3l16-28l6,4l-16,28c3,2,6,5,8,8ZM254-506l33-19l-3-11h-32v-8h32l3-11l-33-19l-21,10c-2,8,-3,16,-3,24c0,8,1,16,3,24ZM386-506l21-10c2,-8,3,-16,3,-24c0,-8,-1,-16,-3,-24l-21-10l-33,19l3,11h32v8h-32l-3,11ZM320-510c17,0,30,-13,30,-30c0,-17,-13,-30,-30,-30c-17,0,-30,13,-30,30c0,17,13,30,30,30ZM320-526c-8,0,-14,-6,-14,-14c0,-8,6,-14,14,-14c8,0,14,6,14,14c0,8,-6,14,-14,14ZM297-453l19-13v-38l-11-3l-16,28l-6-4l16-28c-3,-2,-6,-5,-8,-8l-34,19l-1,23c11,12,25,20,41,24ZM343-453c16,-4,30,-12,41,-24l-1-23l-34-19c-2,3,-5,6,-8,8l16,28l-6,4l-16-28l-11,3v38ZM320-89c-72,0,-131,-59,-131,-131c0,-72,59,-131,131,-131c72,0,131,59,131,131c0,72,-59,131,-131,131ZM320-112c60,0,108,-48,108,-108c0,-60,-48,-108,-108,-108c-60,0,-108,48,-108,108c0,60,48,108,108,108ZM320-124c-53,0,-96,-43,-96,-96c0,-53,43,-96,96,-96c53,0,96,43,96,96c0,53,-43,96,-96,96ZM291-241c2,-3,5,-6,8,-8l-16-28l6-4l16,28l11-3v-38l-19-13c-16,4,-30,12,-41,24l1,23ZM349-241l34-19l1-23c-11,-12,-25,-20,-41,-24l-19,13v38l11,3l16-28l6,4l-16,28c3,2,6,5,8,8ZM254-186l33-19l-3-11h-32v-8h32l3-11l-33-19l-21,10c-2,8,-3,16,-3,24c0,8,1,16,3,24ZM386-186l21-10c2,-8,3,-16,3,-24c0,-8,-1,-16,-3,-24l-21-10l-33,19l3,11h32v8h-32l-3,11ZM320-190c17,0,30,-13,30,-30c0,-17,-13,-30,-30,-30c-17,0,-30,13,-30,30c0,17,13,30,30,30ZM320-206c-8,0,-14,-6,-14,-14c0,-8,6,-14,14,-14c8,0,14,6,14,14c0,8,-6,14,-14,14ZM297-133l19-13v-38l-11-3l-16,28l-6-4l16-28c-3,-2,-6,-5,-8,-8l-34,19l-1,23c11,12,25,20,41,24ZM343-133c16,-4,30,-12,41,-24l-1-23l-34-19c-2,3,-5,6,-8,8l16,28l-6,4l-16-28l-11,3v38Z"></path></svg>