<svg viewBox="60 -765 520 770" xmlns="http://www.w3.org/2000/svg" id="glyph290"><path fill="#333333" d="M247-198c16,0,29,-4,48,-4c18,0,30,4,47,4c31,0,35,-13,37,-18c57,-128,95,-120,95,-145c0,-25,-66,-73,-86,-73c-18,0,-16,9,-47,15c2,-14,4,-19,7,-25c15,-7,33,-1,33,-17c0,-11,-9,-15,-18,-20c1,-6,6,-9,9,-11c6,-1,10,-2,16,-2c28,0,68,9,97,9c8,0,14,-2,14,-13c0,-14,-9,-25,-43,-44c-16,-9,-21,-19,-38,-19c-22,0,-207,44,-277,59c1,9,12,12,22,12c10,0,90,-24,164,-24c14,0,30,1,34,6c-3,8,-13,18,-21,24c-6,2,-10,3,-15,5c-3,6,-3,11,-4,16c-8,11,-27,33,-47,54c0,-13,-4,-58,-16,-58c-6,0,-6,9,-6,16c0,8,4,38,6,56c-16,9,-35,16,-54,22c-4,-7,-22,-24,-38,-35c-3,-2,-4,2,-7,4c2,14,24,60,65,172c-5,3,-15,7,-15,14c0,8,8,20,38,20ZM295-408c1,-6,4,-16,8,-23c3,-2,7,-4,12,-4l4,1v3c0,6,-1,12,-1,17c-9,2,-12,5,-23,6ZM325-230c-2,0,-4,-1,-7,-1c6,-86,13,-122,19,-170c10,-2,16,-3,26,-3c10,0,39,15,39,35c0,16,-50,113,-68,137c-4,1,-6,2,-9,2ZM302-233c-5,0,-11,-1,-16,-1c-3,-67,-6,-100,-9,-152c10,-4,24,-6,38,-10c-3,38,-8,93,-13,163ZM253-235c-5,-21,-30,-94,-43,-124c16,-8,37,-17,48,-20l3,60c0,34,6,51,9,84Z"></path><path fill="#F9F9F5" d="M90,5h460c17,0,30,-13,30,-30v-710c0,-17,-13,-30,-30,-30h-460c-17,0,-30,13,-30,30v710c0,17,13,30,30,30ZM247-198c-30,0,-38,-12,-38,-20c0,-7,10,-11,15,-14c-41,-112,-63,-158,-65,-172c3,-2,4,-6,7,-4c16,11,34,28,38,35c19,-6,38,-13,54,-22c-2,-18,-6,-48,-6,-56c0,-7,0,-16,6,-16c12,0,16,45,16,58c20,-21,39,-43,47,-54c1,-5,1,-10,4,-16c5,-2,9,-3,15,-5c8,-6,18,-16,21,-24c-4,-5,-20,-6,-34,-6c-74,0,-154,24,-164,24c-10,0,-21,-3,-22,-12c70,-15,255,-59,277,-59c17,0,22,10,38,19c34,19,43,30,43,44c0,11,-6,13,-14,13c-29,0,-69,-9,-97,-9c-6,0,-10,1,-16,2c-3,2,-8,5,-9,11c9,5,18,9,18,20c0,16,-18,10,-33,17c-3,6,-5,11,-7,25c31,-6,29,-15,47,-15c20,0,86,48,86,73c0,25,-38,17,-95,145c-2,5,-6,18,-37,18c-17,0,-29,-4,-47,-4c-19,0,-32,4,-48,4ZM295-408c11,-1,14,-4,23,-6c0,-5,1,-11,1,-17v-3l-4-1c-5,0,-9,2,-12,4c-4,7,-7,17,-8,23ZM325-230c3,0,5,-1,9,-2c18,-24,68,-121,68,-137c0,-20,-29,-35,-39,-35c-10,0,-16,1,-26,3c-6,48,-13,84,-19,170c3,0,5,1,7,1ZM302-233c5,-70,10,-125,13,-163c-14,4,-28,6,-38,10c3,52,6,85,9,152c5,0,11,1,16,1ZM253-235h17c-3,-33,-9,-50,-9,-84l-3-60c-11,3,-32,12,-48,20c13,30,38,103,43,124Z"></path></svg>